<svg xmlns="http://www.w3.org/2000/svg" width="35.28mm" height="35.28mm" viewBox="0 0 100 100"><defs><style>.cls-1,.cls-2{fill:#757c8a;}.cls-2{opacity:0;}</style></defs><title>Fichier 565</title><g id="Calque_2" data-name="Calque 2"><g id="laverie"><rect class="cls-1" x="29.03" y="22.23" width="7.88" height="7.88"/><rect class="cls-1" x="42.66" y="22.23" width="7.88" height="7.88"/><path class="cls-1" d="M73.84,8.6H26.16A10.84,10.84,0,0,0,15.41,19.35v61.3A10.84,10.84,0,0,0,26.16,91.4H73.84A10.84,10.84,0,0,0,84.59,80.65V19.35A10.84,10.84,0,0,0,73.84,8.6Zm0,7.88h0a2.84,2.84,0,0,1,2.82,2.87V80.66a2.85,2.85,0,0,1-2.87,2.86H26.15a2.81,2.81,0,0,1-2-.8,2.86,2.86,0,0,1-.85-2.07V19.34a2.83,2.83,0,0,1,2.79-2.86l.08-.53v.53Z"/><path class="cls-1" d="M49.79,80.87h0a22.21,22.21,0,0,0,0-44.41h0a22.21,22.21,0,0,0,0,44.41Zm15-26.36c-.51-.29-1-.62-1.59-1-2-1.29-4.53-2.89-8.14-2.89s-6.1,1.82-8,3.27c-1.6,1.23-2.65,2-4,2-1.58,0-2.64-.76-4.11-1.81a19.22,19.22,0,0,0-3.16-2,15.6,15.6,0,0,1,13.12-9A15.51,15.51,0,0,1,64.77,54.51ZM58.84,71.28A15.53,15.53,0,0,1,34.29,59c.26.17.52.36.79.55,1.88,1.34,4.23,3,7.93,3s6.1-1.81,8-3.27c1.63-1.26,2.62-2,4-2,1.66,0,3,.84,4.66,1.9A17.59,17.59,0,0,0,65,61.76,15.37,15.37,0,0,1,58.84,71.28Z"/><rect class="cls-2" width="100" height="100"/></g></g></svg>